<svg xmlns="http://www.w3.org/2000/svg" width="1600" height="600" viewBox="0 0 1600 600">
  <defs>
    <radialGradient id="moon" cx="35%" cy="30%" r="72%"><stop offset="0" stop-color="#f7eedc"/><stop offset=".25" stop-color="#d3c8ba"/><stop offset=".65" stop-color="#827c7d"/><stop offset="1" stop-color="#3f3b49"/></radialGradient>
    <linearGradient id="station" x1="0" y1="0" x2="0" y2="1"><stop stop-color="#b5b1bd"/><stop offset=".48" stop-color="#343342"/><stop offset=".55" stop-color="#191923"/></linearGradient>
    <linearGradient id="panel" x1="0" y1="0" x2="1" y2="1"><stop stop-color="#2d263c"/><stop offset="1" stop-color="#15131f"/></linearGradient>
  </defs>
  <rect width="1600" height="600" fill="#07070d"/>
  <ellipse cx="1300" cy="80" rx="410" ry="250" fill="#a277ff" opacity=".12"/>
  <ellipse cx="180" cy="510" rx="430" ry="220" fill="#ff5d91" opacity=".10"/>
  <g fill="#f0e6d0" opacity=".58"><circle cx="77" cy="77" r="2"/><circle cx="165" cy="125" r="1.5"/><circle cx="268" cy="72" r="1"/><circle cx="416" cy="108" r="2"/><circle cx="585" cy="55" r="1"/><circle cx="705" cy="141" r="2"/><circle cx="928" cy="64" r="1.5"/><circle cx="1120" cy="116" r="1"/><circle cx="1430" cy="152" r="2"/><circle cx="1505" cy="78" r="1"/><circle cx="1240" cy="256" r="1.5"/><circle cx="980" cy="225" r="1"/></g>
  <g fill="none" stroke="#d8ff56" stroke-opacity=".4"><ellipse cx="966" cy="266" rx="462" ry="175" transform="rotate(-22 966 266)"/><ellipse cx="1020" cy="283" rx="360" ry="134" transform="rotate(29 1020 283)" stroke="#a277ff"/></g>
  <circle cx="936" cy="220" r="180" fill="url(#moon)"/>
  <g fill="none" stroke="#3c3743" stroke-opacity=".28" stroke-width="12"><ellipse cx="888" cy="172" rx="31" ry="23" transform="rotate(-17 888 172)"/><ellipse cx="1035" cy="282" rx="24" ry="18"/><ellipse cx="948" cy="254" rx="14" ry="10"/></g>
  <path d="M756 233C790 131 856 59 941 43C905 125 853 231 756 233Z" fill="#302c37" opacity=".35"/>
  <g transform="translate(1005 280) rotate(-8)">
    <path d="M250 95L430 55L430 150L300 155L250 128Z" fill="url(#station)" stroke="#c6c3cc" stroke-width="5"/>
    <path d="M430 55L610 95L560 128L430 150Z" fill="url(#station)" stroke="#c6c3cc" stroke-width="5"/>
    <path d="M399 38L468 12L515 67L484 185L407 185L369 66Z" fill="#4e4c5b" stroke="#c6c3cc" stroke-width="5"/>
    <path d="M307 98L427 75" stroke="#d8ff56" stroke-width="9"/><path d="M490 75L560 96" stroke="#d8ff56" stroke-width="9"/>
    <path d="M293 122L428 102M490 102L571 121" stroke="#272634" stroke-width="4"/>
  </g>
  <g transform="translate(1190 150) rotate(23)">
    <path d="M0 17L26 3L82 3L106 17L78 29L25 29Z" fill="#3d3b48" stroke="#aba9bb" stroke-width="2"/>
    <rect x="74" y="12" width="9" height="7" fill="#ff5d91"/><rect x="16" y="-2" width="8" height="7" fill="#ff5d91"/><rect x="16" y="28" width="8" height="7" fill="#ff5d91"/>
  </g>
  <g transform="translate(146 360) rotate(-8)">
    <rect width="270" height="166" rx="3" fill="url(#panel)" stroke="#ff5d91" stroke-opacity=".72" stroke-width="2"/>
    <path d="M14 16H256M14 143H256" stroke="#7d708e" stroke-opacity=".45"/>
    <text x="18" y="34" fill="#ff5d91" font-family="monospace" font-size="11">WANTED // ORBITAL AUTHORITY</text>
    <text x="22" y="96" fill="#fbf0d9" font-family="sans-serif" font-size="53" font-weight="800" letter-spacing="10">YOU</text>
    <text x="18" y="131" fill="#aba9bb" font-family="monospace" font-size="11">THREAT LEVEL: RISING</text>
  </g>
  <path d="M0 500H1600" stroke="#f0e6d0" stroke-opacity=".09"/><path d="M0 530H990" stroke="#d8ff56" stroke-opacity=".4"/>
</svg>
