<svg xmlns="http://www.w3.org/2000/svg" width="420" height="560" viewBox="0 0 420 560"><defs><linearGradient id="bg" x1="0" y1="0" x2="1" y2="1"><stop stop-color="#21324c"/><stop offset="1" stop-color="#090a12"/></linearGradient><linearGradient id="steel" x1="0" y1="0" x2="1" y2="1"><stop stop-color="#d9f8ff"/><stop offset=".42" stop-color="#5c93b1"/><stop offset="1" stop-color="#152838"/></linearGradient><filter id="glow"><feGaussianBlur stdDeviation="7" result="b"/><feMerge><feMergeNode in="b"/><feMergeNode in="SourceGraphic"/></feMerge></filter></defs><rect width="420" height="560" fill="url(#bg)"/><g opacity=".22" stroke="#6ce6ff"><path d="M0 80H420M0 160H420M0 240H420M0 320H420M0 400H420M0 480H420"/><path d="M70 0V560M140 0V560M210 0V560M280 0V560M350 0V560"/></g><circle cx="210" cy="228" r="132" fill="#6ce6ff" opacity=".13" filter="url(#glow)"/><g transform="translate(72 92)"><path d="M59 121 91 68h94l36 53-20 133-48 48H108l-46-48Z" fill="url(#steel)" stroke="#d8fffb" stroke-opacity=".75" stroke-width="5"/><rect x="94" y="120" width="93" height="56" rx="17" fill="#06101a" stroke="#77efff" stroke-width="5"/><circle cx="122" cy="148" r="11" fill="#d8ff72" filter="url(#glow)"/><circle cx="159" cy="148" r="11" fill="#d8ff72" filter="url(#glow)"/><path d="M80 198h122l-18 55H98Z" fill="#163044"/><path d="M102 252h75l18 99H84Z" fill="#234c63" stroke="#8feeff" stroke-opacity=".5" stroke-width="4"/><path d="m82 282-48 57 19 27 53-42M194 282l48 57-19 27-53-42" fill="none" stroke="#9eddf3" stroke-width="18" stroke-linecap="round"/><path d="m84 340-26 82M194 340l29 82" stroke="#9eddf3" stroke-width="22" stroke-linecap="round"/><path d="M152 54V17M126 69 105 37M183 69l22-32" stroke="#87e9ff" stroke-width="7" stroke-linecap="round"/><circle cx="152" cy="17" r="10" fill="#ff62ca" filter="url(#glow)"/></g><rect x="25" y="458" width="370" height="74" rx="10" fill="#0a1420" fill-opacity=".85" stroke="#6ce6ff" stroke-opacity=".45"/><text x="44" y="486" fill="#d8ff72" font-family="monospace" font-size="16">UNIT // BUILDER DRONE</text><text x="44" y="514" fill="#d8e7f1" font-family="sans-serif" font-size="18" font-weight="800">ORE HARVEST / STRUCTURE DEPLOY</text></svg>