<svg xmlns="http://www.w3.org/2000/svg" width="1200" height="500" viewBox="0 0 1200 500">
<defs><radialGradient id="surface" cx="35%" cy="32%" r="75%"><stop stop-color="#8e8390"/><stop offset=".52" stop-color="#443e50"/><stop offset="1" stop-color="#232130"/></radialGradient><linearGradient id="shade" x1="0" y1="0" x2="1" y2="1"><stop offset=".35" stop-color="#000" stop-opacity="0"/><stop offset=".78" stop-color="#07070d" stop-opacity=".9"/></linearGradient></defs>
<rect width="1200" height="500" fill="#0b0a12"/><rect x="22" y="22" width="1156" height="456" fill="none" stroke="#f0e6d0" stroke-opacity=".10"/><path d="M0 250H1200" stroke="#f0e6d0" stroke-opacity=".13"/><circle cx="600" cy="250" r="197" fill="url(#surface)" stroke="#a277ff" stroke-opacity=".4" stroke-width="2"/><circle cx="600" cy="250" r="165" fill="none" stroke="#f0e6d0" stroke-opacity=".08" stroke-width="2"/><path d="M430 130C505 194 564 242 720 382" fill="none" stroke="#a277ff" stroke-opacity=".64" stroke-width="11"/><path d="M503 377C574 322 644 273 763 127" fill="none" stroke="#ff5d91" stroke-opacity=".48" stroke-width="8"/><path d="M402 60H820" stroke="#d8ff56" stroke-opacity=".36" stroke-dasharray="8 9"/><path d="M352 305H846" stroke="#d8ff56" stroke-opacity=".22" stroke-dasharray="4 11"/><circle cx="600" cy="250" r="197" fill="url(#shade)"/>
<g font-family="monospace" font-size="13" fill="#f0e6d0"><g transform="translate(354 334)"><circle r="20" fill="#d8ff56"/><text x="-8" y="5" fill="#07070d">01</text><text x="30" y="5">GRAVEYARD BELT</text></g><g transform="translate(789 352)"><circle r="20" fill="#ff5d91"/><text x="-8" y="5" fill="#07070d">02</text><text x="30" y="5">CINDER ROW</text></g><g transform="translate(831 135)"><circle r="20" fill="#a277ff"/><text x="-8" y="5" fill="#07070d">03</text><text x="30" y="5">THE CROWNLESS</text></g><g transform="translate(452 126)"><circle r="20" fill="#f0e6d0"/><text x="-8" y="5" fill="#07070d">04</text><text x="30" y="5">NULL CHAPEL</text></g></g><text x="48" y="55" fill="#d8ff56" font-family="monospace" font-size="13">LUNAR DISTRICT MAP // LIVE CRIMINAL INTELLIGENCE</text>
</svg>