<svg xmlns="http://www.w3.org/2000/svg" width="420" height="560" viewBox="0 0 420 560"><defs><linearGradient id="bg" x1="0" y1="0" x2="1" y2="1"><stop stop-color="#47205b"/><stop offset="1" stop-color="#0a0714"/></linearGradient><linearGradient id="skin" x1="0" y1="0" x2="1" y2="1"><stop stop-color="#df9cff"/><stop offset=".55" stop-color="#8d4bb6"/><stop offset="1" stop-color="#301741"/></linearGradient><linearGradient id="coat" x1="0" y1="0" x2="1" y2="1"><stop stop-color="#ff75c9"/><stop offset=".5" stop-color="#6b2d8b"/><stop offset="1" stop-color="#180b29"/></linearGradient><filter id="g"><feGaussianBlur stdDeviation="8" result="b"/><feMerge><feMergeNode in="b"/><feMergeNode in="SourceGraphic"/></feMerge></filter></defs><rect width="420" height="560" fill="url(#bg)"/><circle cx="210" cy="190" r="154" fill="#a76dff" opacity=".15" filter="url(#g)"/><path d="M0 430 420 140M0 500 420 210" stroke="#ff62ca" stroke-opacity=".17" stroke-width="4"/><g transform="translate(55 62)"><path d="M118 36Q169-4 221 36L249 137Q237 222 169 241Q99 222 87 137Z" fill="url(#skin)" stroke="#f5c5ff" stroke-opacity=".72" stroke-width="5"/><path d="M101 120Q169 83 237 120v49Q169 197 101 169Z" fill="#190d29"/><path d="M117 142h36M186 142h36" stroke="#d8ff72" stroke-width="12" stroke-linecap="round" filter="url(#g)"/><path d="M147 181q22 17 45 0" fill="none" stroke="#ff62ca" stroke-width="7" stroke-linecap="round"/><path d="M105 236h129l67 111-54 84H86l-55-84Z" fill="url(#coat)" stroke="#f3b4ff" stroke-opacity=".63" stroke-width="5"/><path d="M110 251 42 329l27 35 83-56M227 251l68 78-27 35-83-56" fill="none" stroke="#b568d6" stroke-width="25" stroke-linecap="round"/><path d="M102 420 73 478M231 420l34 58" stroke="#b568d6" stroke-width="29" stroke-linecap="round"/><path d="m195 270 105-38 16 52-108 36Z" fill="#592e81" stroke="#d8ff72" stroke-width="5"/><path d="M219 279h60" stroke="#ff62ca" stroke-width="6"/><circle cx="169" cy="8" r="15" fill="#ffd36c" filter="url(#g)"/><path d="M169 27V8" stroke="#ffd36c" stroke-width="8"/></g><rect x="25" y="458" width="370" height="74" rx="10" fill="#190b28" fill-opacity=".88" stroke="#d8ff72" stroke-opacity=".5"/><text x="44" y="486" fill="#ff8ed4" font-family="monospace" font-size="16">HERO // FIELD COMMANDER</text><text x="44" y="514" fill="#ffe6ff" font-family="sans-serif" font-size="18" font-weight="800">COMMAND RANGE / RELAY BREAKER</text></svg>