<svg xmlns="http://www.w3.org/2000/svg" width="420" height="560" viewBox="0 0 420 560"><defs><linearGradient id="bg" x1="0" y1="0" x2="1" y2="1"><stop stop-color="#231f52"/><stop offset="1" stop-color="#090914"/></linearGradient><linearGradient id="armor" x1="0" y1="0" x2="1" y2="1"><stop stop-color="#bfc9ff"/><stop offset=".5" stop-color="#5e73bc"/><stop offset="1" stop-color="#171b43"/></linearGradient><filter id="g"><feGaussianBlur stdDeviation="7" result="b"/><feMerge><feMergeNode in="b"/><feMergeNode in="SourceGraphic"/></feMerge></filter></defs><rect width="420" height="560" fill="url(#bg)"/><path d="M0 130 420 50M0 215 420 135M0 300 420 220" stroke="#a76dff" stroke-opacity=".17" stroke-width="2"/><circle cx="210" cy="206" r="146" fill="#a76dff" opacity=".12" filter="url(#g)"/><g transform="translate(58 72)"><path d="M76 142Q80 44 153 25Q228 44 232 142L211 225H96Z" fill="url(#armor)" stroke="#dde4ff" stroke-opacity=".7" stroke-width="5"/><path d="M96 144Q153 102 211 144V199Q153 234 96 199Z" fill="#0a0c1d"/><path d="M111 161h84" stroke="#6ce6ff" stroke-width="12" stroke-linecap="round" filter="url(#g)"/><path d="M109 230h89l45 96-39 61H105l-40-61Z" fill="#27366b" stroke="#96aaff" stroke-width="5"/><path d="M108 253 45 316l21 29 74-41M201 253l63 63-22 29-73-41" fill="none" stroke="#8297dd" stroke-width="22" stroke-linecap="round"/><path d="M105 385 77 449M205 385l31 64" stroke="#8297dd" stroke-width="26" stroke-linecap="round"/><path d="m224 276 58-44 17 25-57 43" fill="#3a4f9a" stroke="#b4c2ff" stroke-width="4"/><circle cx="285" cy="243" r="11" fill="#ff62ca" filter="url(#g)"/><path d="M153 23V-17" stroke="#d8ff72" stroke-width="7"/><circle cx="153" cy="-17" r="10" fill="#d8ff72" filter="url(#g)"/></g><rect x="25" y="458" width="370" height="74" rx="10" fill="#0b0c1b" fill-opacity=".86" stroke="#a76dff" stroke-opacity=".6"/><text x="44" y="486" fill="#6ce6ff" font-family="monospace" font-size="16">UNIT // PATROL DEPUTY</text><text x="44" y="514" fill="#e3e8ff" font-family="sans-serif" font-size="18" font-weight="800">RANGED RESPONSE / LINE HOLDER</text></svg>