<svg xmlns="http://www.w3.org/2000/svg" width="420" height="560" viewBox="0 0 420 560"><defs><linearGradient id="bg" x1="0" y1="0" x2="1" y2="1"><stop stop-color="#3a2058"/><stop offset="1" stop-color="#0c0817"/></linearGradient><linearGradient id="plate" x1="0" y1="0" x2="1" y2="1"><stop stop-color="#ffdcff"/><stop offset=".45" stop-color="#b078cb"/><stop offset="1" stop-color="#351845"/></linearGradient><filter id="g"><feGaussianBlur stdDeviation="8" result="b"/><feMerge><feMergeNode in="b"/><feMergeNode in="SourceGraphic"/></feMerge></filter></defs><rect width="420" height="560" fill="url(#bg)"/><circle cx="210" cy="220" r="151" fill="#ff62ca" opacity=".11" filter="url(#g)"/><path d="M0 88H420M0 160H420M0 232H420M0 304H420M0 376H420" stroke="#ffd36c" stroke-opacity=".12"/><g transform="translate(50 70)"><path d="M110 36h100l35 79-35 119H110L74 115Z" fill="url(#plate)" stroke="#ffe7ff" stroke-opacity=".7" stroke-width="5"/><path d="M115 118h90v58h-90z" fill="#150c24"/><path d="M126 144h68" stroke="#ffd36c" stroke-width="12" stroke-linecap="round" filter="url(#g)"/><path d="M104 228h112l53 99-48 69H99l-49-69Z" fill="#632c81" stroke="#e3b7ff" stroke-width="5"/><path d="M100 252 37 314l22 34 70-44M218 252l69 62-23 34-72-44" fill="none" stroke="#ba82d9" stroke-width="27" stroke-linecap="round"/><path d="M104 378 69 457M215 378l39 79" stroke="#ba82d9" stroke-width="31" stroke-linecap="round"/><path d="M19 236 92 200l59 71-24 115-85-44Z" fill="#65357c" stroke="#ffd36c" stroke-width="6"/><path d="M42 254 105 230M38 310l70 20" stroke="#ffe7a8" stroke-opacity=".75" stroke-width="5"/><circle cx="154" cy="0" r="11" fill="#d8ff72" filter="url(#g)"/><path d="M154 24V0" stroke="#d8ff72" stroke-width="7"/></g><rect x="25" y="458" width="370" height="74" rx="10" fill="#180d28" fill-opacity=".88" stroke="#ff62ca" stroke-opacity=".5"/><text x="44" y="486" fill="#ffd36c" font-family="monospace" font-size="16">UNIT // SHIELD DEPUTY</text><text x="44" y="514" fill="#ffe8ff" font-family="sans-serif" font-size="18" font-weight="800">HEAVY ARMOR / FRONTLINE WALL</text></svg>